<?xml version="1.0" standalone="no"?>
<!DOCTYPE svg PUBLIC "-//W3C//DTD SVG 20010904//EN"
 "http://www.w3.org/TR/2001/REC-SVG-20010904/DTD/svg10.dtd">
<svg version="1.0" xmlns="http://www.w3.org/2000/svg"
 width="550.000000pt" height="550.000000pt" viewBox="0 0 550.000000 550.000000"
 preserveAspectRatio="xMidYMid meet">
<metadata>
Created by potrace 1.11, written by Peter Selinger 2001-2013
</metadata>
<g transform="translate(0.000000,550.000000) scale(0.100000,-0.100000)"
fill="#000000" stroke="none">
<path d="M691 5464 c-28 -35 -43 -94 -39 -151 l3 -46 110 -56 c451 -232 644
-331 735 -379 172 -90 920 -466 985 -494 33 -15 81 -36 107 -47 25 -11 82 -47
125 -81 l80 -62 -19 -67 c-26 -95 -14 -166 33 -191 11 -6 29 -8 39 -5 17 5 20
2 20 -20 0 -62 58 -112 120 -103 26 4 31 1 36 -21 14 -66 44 -91 101 -84 27 3
34 0 47 -25 27 -52 87 -65 149 -32 20 11 37 17 38 13 5 -52 25 -83 53 -83 18
0 20 -13 6 -39 -36 -69 -30 -202 17 -343 49 -148 114 -225 158 -188 39 32 118
227 148 365 16 72 13 155 -8 195 -16 31 -58 65 -90 72 -16 4 -15 6 10 12 102
25 215 86 269 147 23 25 43 62 57 110 31 103 23 182 -30 294 -23 47 -41 88
-41 93 0 24 -35 74 -76 107 -36 29 -51 36 -73 32 -26 -5 -28 -3 -40 43 -15 57
-47 84 -93 78 -27 -4 -29 -3 -27 31 3 63 0 78 -26 105 -33 35 -85 35 -137 0
-21 -15 -38 -32 -38 -38 -1 -6 -9 5 -18 24 -33 67 -106 75 -187 20 -24 -16
-82 -41 -130 -55 -48 -13 -90 -27 -95 -30 -4 -3 -32 11 -61 30 -30 19 -57 35
-61 35 -4 0 -31 11 -60 24 -196 88 -590 257 -843 361 -77 31 -154 63 -172 71
-40 18 -262 108 -548 224 -121 48 -253 102 -294 119 -41 16 -78 28 -83 25 -4
-3 -8 -1 -8 4 0 11 -22 21 -60 28 -16 4 -29 -1 -37 -12 -12 -16 -13 -16 -13
-1 0 25 -16 21 -39 -9z m252 -84 c136 -46 228 -81 312 -120 108 -50 339 -157
390 -180 28 -12 73 -32 100 -45 28 -12 100 -44 160 -70 61 -26 128 -55 150
-65 212 -94 697 -286 792 -314 11 -4 35 -19 53 -34 l31 -28 -39 -59 c-46 -69
-69 -132 -78 -211 -4 -30 -10 -53 -13 -52 -3 2 -30 19 -58 38 -47 31 -71 61
-65 83 3 11 -16 8 -20 -4 -2 -6 -36 8 -78 32 -139 78 -371 198 -1117 572 -622
311 -743 375 -743 393 0 20 39 81 62 96 21 13 38 10 161 -32z m2358 -796 c8
-10 14 -45 16 -87 1 -69 -1 -75 -64 -201 -36 -72 -92 -196 -124 -275 -50 -125
-61 -145 -81 -146 -13 -1 -37 -5 -54 -9 l-32 -7 5 38 c2 21 31 94 63 163 53
116 170 408 170 427 0 35 25 85 48 98 35 18 37 18 53 -1z m243 -22 c8 -24 2
-47 -29 -117 -29 -67 -29 -66 -98 -185 -61 -106 -131 -245 -187 -373 -34 -77
-48 -99 -67 -103 -13 -4 -26 -4 -29 -2 -8 9 18 74 86 208 70 139 161 348 198
457 33 95 110 166 126 115z m-414 -30 c0 -5 -13 -33 -30 -63 -45 -83 -125
-276 -160 -383 -17 -53 -32 -96 -33 -96 -1 0 -17 -4 -34 -9 l-33 -9 5 41 c5
43 22 105 77 279 36 117 102 229 138 238 41 10 70 10 70 2z m520 -152 c0 -38
-9 -68 -35 -119 -48 -97 -100 -224 -155 -379 l-47 -133 -76 -34 c-45 -19 -77
-28 -77 -21 1 37 34 126 73 193 59 104 177 339 217 436 48 115 100 145 100 57z
m150 -103 c0 -12 18 -44 39 -70 79 -95 102 -221 60 -332 -16 -44 -31 -64 -72
-95 -51 -38 -137 -78 -187 -86 -14 -3 -36 -7 -50 -9 -14 -3 -38 -8 -55 -11
-16 -3 -35 -10 -42 -16 -9 -7 -14 -6 -19 6 -4 10 11 52 36 104 61 124 121 269
164 398 31 95 40 112 64 121 45 18 62 15 62 -10z"/>
<path d="M2760 4535 c-36 -52 -80 -143 -80 -165 0 -8 12 8 26 35 14 28 41 78
60 113 19 34 32 62 30 62 -3 0 -19 -20 -36 -45z"/>
<path d="M3227 2544 c-1 -1 -76 -5 -167 -8 -230 -9 -268 -13 -470 -43 -53 -8
-134 -61 -164 -107 -38 -58 -34 -127 11 -217 18 -37 40 -72 47 -78 16 -13 13
-22 -35 -96 -84 -129 -184 -359 -218 -495 -39 -159 -48 -239 -45 -396 6 -356
129 -653 403 -976 l90 -105 53 0 c29 0 222 -3 428 -7 206 -4 547 -9 756 -11
l382 -5 77 82 c135 144 267 324 331 449 63 125 123 312 142 444 14 96 7 355
-12 445 -35 164 -100 324 -199 489 -61 100 -63 105 -47 124 6 7 19 23 30 36
27 32 50 116 45 164 -4 42 -42 112 -76 141 -69 58 -195 110 -289 121 -8 1 -40
5 -70 8 -154 18 -245 25 -475 33 -155 6 -524 11 -528 8z m-542 -139 c28 -4 64
-9 80 -11 28 -4 78 -8 210 -20 275 -23 1030 -22 1210 1 17 2 57 7 90 10 33 4
83 11 110 17 72 14 70 15 113 -23 93 -82 108 -150 55 -254 l-30 -60 -44 1
c-24 1 -125 5 -224 9 -363 15 -1032 28 -1437 28 l-256 0 -24 41 c-78 136 -85
192 -33 254 l36 41 47 -14 c26 -7 70 -16 97 -20z m-49 -364 c27 -5 76 -13 109
-16 33 -4 68 -9 79 -11 10 -2 53 -6 95 -10 42 -3 94 -8 116 -10 303 -26 1099
-26 1310 1 17 2 57 7 90 10 l60 7 14 -34 c8 -18 29 -65 47 -104 67 -149 134
-398 146 -544 0 -3 0 -9 -1 -15 -1 -7 -245 -9 -714 -8 -962 2 -1642 10 -1641
20 1 4 5 33 8 63 10 84 53 259 87 357 48 136 122 303 135 303 6 0 33 -4 60 -9z
m-175 -822 c107 -23 236 -44 399 -64 24 -2 113 -11 225 -21 166 -14 627 -20
795 -9 231 14 317 22 450 40 58 8 125 17 150 21 25 3 82 14 128 25 45 10 87
19 92 19 9 0 6 -113 -5 -190 -2 -14 -3 -33 -4 -43 -1 -16 -8 -17 -53 -13 -195
20 -489 28 -1058 29 -461 0 -859 -7 -1000 -18 -96 -8 -178 -16 -205 -21 -22
-4 -25 -1 -26 23 -1 16 -2 39 -4 53 -4 41 -8 133 -6 169 1 27 4 32 19 26 9 -4
56 -15 103 -26z m-36 -318 c22 -5 65 -12 95 -16 30 -3 62 -8 70 -10 8 -2 51
-6 95 -10 44 -3 91 -8 105 -10 14 -2 84 -7 155 -11 72 -3 155 -8 185 -10 99
-6 712 -6 840 0 273 13 441 27 606 49 l92 13 -31 -89 -31 -89 -71 6 c-347 30
-1651 30 -1990 0 -131 -11 -117 -17 -141 56 -28 84 -38 130 -27 130 4 0 26 -5
48 -9z m165 -285 c25 -4 61 -8 80 -11 19 -3 71 -8 115 -11 44 -4 94 -8 110
-10 234 -24 1058 -24 1305 1 19 2 72 6 118 10 46 3 91 8 100 10 61 11 132 15
132 6 0 -9 -49 -98 -85 -156 -34 -54 -152 -209 -193 -254 -40 -44 -40 -44
-109 -43 -37 0 -255 3 -483 7 -228 3 -532 8 -674 10 l-259 3 -26 32 c-77 97
-156 217 -206 311 -30 59 -55 109 -55 111 0 3 19 2 43 -2 23 -5 62 -11 87 -14z"/>
</g>
</svg>
