<?xml version="1.0" standalone="no"?>
<!DOCTYPE svg PUBLIC "-//W3C//DTD SVG 20010904//EN"
 "http://www.w3.org/TR/2001/REC-SVG-20010904/DTD/svg10.dtd">
<svg version="1.0" xmlns="http://www.w3.org/2000/svg"
 width="240.000000pt" height="240.000000pt" viewBox="0 0 240.000000 240.000000"
 preserveAspectRatio="xMidYMid meet">
<metadata>
Created by potrace 1.11, written by Peter Selinger 2001-2013
</metadata>
<g transform="translate(0.000000,240.000000) scale(0.100000,-0.100000)"
fill="#000000" stroke="none">
<path d="M562 2173 c-22 -38 -77 -133 -124 -213 -46 -81 -87 -153 -91 -160 -4
-8 -17 -31 -28 -50 -24 -39 -239 -412 -270 -467 -11 -19 -27 -45 -35 -59 -15
-22 -15 -26 0 -49 9 -13 28 -46 43 -72 14 -26 33 -60 42 -75 67 -113 187 -325
189 -335 2 -7 8 -13 13 -13 5 0 9 -4 9 -10 0 -5 21 -44 46 -87 26 -43 60 -103
77 -133 17 -30 61 -107 98 -170 l67 -115 602 0 602 0 84 144 c46 79 84 145 84
147 0 2 20 36 43 76 44 73 216 371 256 441 33 59 56 97 95 164 l36 62 -20 33
c-11 18 -24 42 -30 53 -5 11 -22 41 -37 67 -15 26 -81 139 -145 250 -64 112
-173 300 -241 418 l-125 215 -600 3 -601 2 -39 -67z"/>
</g>
</svg>
